<svg width="20" height="20" viewBox="0 0 20 20" fill="none" xmlns="http://www.w3.org/2000/svg">
<path d="M10.0001 19.1667C10.9168 19.1667 11.6585 18.425 11.6585 17.5083H8.34179C8.34179 18.425 9.08346 19.1667 10.0001 19.1667ZM16.9085 15.2417L15.8335 14.1667V9.16667C15.8335 6.375 13.8668 4.04167 11.2501 3.475V2.5C11.2501 1.80833 10.6918 1.25 10.0001 1.25C9.30846 1.25 8.75012 1.80833 8.75012 2.5V3.475C6.13346 4.04167 4.16679 6.375 4.16679 9.16667V14.1667L3.09179 15.2417C2.56679 15.7667 2.93346 16.6667 3.67512 16.6667H16.3168C17.0668 16.6667 17.4335 15.7667 16.9085 15.2417ZM10.8335 13.3333H9.16679V11.6667H10.8335V13.3333ZM10.8335 9.16667C10.8335 9.625 10.4585 10 10.0001 10C9.54179 10 9.16679 9.625 9.16679 9.16667V7.5C9.16679 7.04167 9.54179 6.66667 10.0001 6.66667C10.4585 6.66667 10.8335 7.04167 10.8335 7.5V9.16667Z" fill="white"/>
</svg>
